<?xml version="1.0" encoding="UTF-8" standalone="no"?>
<!DOCTYPE svg PUBLIC "-//W3C//DTD SVG 1.1//EN"
 "http://www.w3.org/Graphics/SVG/1.1/DTD/svg11.dtd">
<!-- Generated by graphviz version 2.40.1 (20161225.0304)
 -->
<!-- Title: G Pages: 1 -->
<svg width="568pt" height="216pt"
 viewBox="0.00 0.00 567.70 216.00" xmlns="http://www.w3.org/2000/svg" xmlns:xlink="http://www.w3.org/1999/xlink">
<g id="graph0" class="graph" transform="scale(1 1) rotate(0) translate(4 212)">
<title>G</title>
<polygon fill="#ffffff" stroke="transparent" points="-4,4 -4,-212 563.6969,-212 563.6969,4 -4,4"/>
<!-- User(0.0.2&#45;beta.2) -->
<g id="node1" class="node">
<title>User(0.0.2&#45;beta.2)</title>
<ellipse fill="none" stroke="#000000" cx="74.6883" cy="-104" rx="74.8771" ry="18"/>
<text text-anchor="middle" x="74.6883" y="-99.8" font-family="Times,serif" font-size="14.00" fill="#000000">User(0.0.2&#45;beta.2)</text>
</g>
<!-- Login(0.0.1&#45;beta.7) -->
<g id="node2" class="node">
<title>Login(0.0.1&#45;beta.7)</title>
<ellipse fill="none" stroke="#000000" cx="152.6883" cy="-18" rx="79.2289" ry="18"/>
<text text-anchor="middle" x="152.6883" y="-13.8" font-family="Times,serif" font-size="14.00" fill="#000000">Login(0.0.1&#45;beta.7)</text>
</g>
<!-- User(0.0.2&#45;beta.2)&#45;&gt;Login(0.0.1&#45;beta.7) -->
<g id="edge1" class="edge">
<title>User(0.0.2&#45;beta.2)&#45;&gt;Login(0.0.1&#45;beta.7)</title>
<path fill="none" stroke="#000000" d="M70.4247,-86.0025C69.046,-75.8367 69.1734,-63.3367 75.1981,-54 79.6091,-47.164 85.6866,-41.6048 92.5142,-37.089"/>
<polygon fill="#000000" stroke="#000000" points="94.5808,-39.9376 101.4946,-31.9095 91.0834,-33.8738 94.5808,-39.9376"/>
<text text-anchor="middle" x="146.4334" y="-56.8" font-family="Times,serif" font-size="14.00" fill="#000000">(&lt; 1.0.0, &gt;= 0.0.1&#45;beta.0)</text>
</g>
<!-- Demo(0.1.0) -->
<g id="node3" class="node">
<title>Demo(0.1.0)</title>
<ellipse fill="none" stroke="#000000" cx="230.6883" cy="-190" rx="55.0922" ry="18"/>
<text text-anchor="middle" x="230.6883" y="-185.8" font-family="Times,serif" font-size="14.00" fill="#000000">Demo(0.1.0)</text>
</g>
<!-- Demo(0.1.0)&#45;&gt;User(0.0.2&#45;beta.2) -->
<g id="edge4" class="edge">
<title>Demo(0.1.0)&#45;&gt;User(0.0.2&#45;beta.2)</title>
<path fill="none" stroke="#000000" d="M177.4683,-184.667C137.6648,-179.4557 87.9957,-169.9318 75.1981,-154 70.284,-147.8825 68.7766,-139.8514 68.8827,-132.0208"/>
<polygon fill="#000000" stroke="#000000" points="72.3719,-132.2982 69.801,-122.02 65.4012,-131.6581 72.3719,-132.2982"/>
<text text-anchor="middle" x="146.4334" y="-142.8" font-family="Times,serif" font-size="14.00" fill="#000000">(&lt; 0.0.2, &gt;= 0.0.2&#45;beta.0)</text>
</g>
<!-- Demo(0.1.0)&#45;&gt;Login(0.0.1&#45;beta.7) -->
<g id="edge3" class="edge">
<title>Demo(0.1.0)&#45;&gt;Login(0.0.1&#45;beta.7)</title>
<path fill="none" stroke="#000000" d="M233.7336,-171.9911C237.4285,-144.2108 240.5106,-90.3214 216.6883,-54 212.9303,-48.2702 207.929,-43.3595 202.3722,-39.1765"/>
<polygon fill="#000000" stroke="#000000" points="204.1798,-36.1754 193.9134,-33.5579 200.3067,-42.0064 204.1798,-36.1754"/>
<text text-anchor="middle" x="307.4334" y="-99.8" font-family="Times,serif" font-size="14.00" fill="#000000">(&lt; 0.0.1, &gt;= 0.0.1&#45;beta.0)</text>
</g>
<!-- Ground(0.0.1&#45;beta.2) -->
<g id="node4" class="node">
<title>Ground(0.0.1&#45;beta.2)</title>
<ellipse fill="none" stroke="#000000" cx="474.6883" cy="-104" rx="85.0171" ry="18"/>
<text text-anchor="middle" x="474.6883" y="-99.8" font-family="Times,serif" font-size="14.00" fill="#000000">Ground(0.0.1&#45;beta.2)</text>
</g>
<!-- Demo(0.1.0)&#45;&gt;Ground(0.0.1&#45;beta.2) -->
<g id="edge2" class="edge">
<title>Demo(0.1.0)&#45;&gt;Ground(0.0.1&#45;beta.2)</title>
<path fill="none" stroke="#000000" d="M268.2786,-176.751C309.2138,-162.323 375.0172,-139.13 421.2996,-122.8173"/>
<polygon fill="#000000" stroke="#000000" points="422.5957,-126.0716 430.8635,-119.4464 420.2687,-119.4697 422.5957,-126.0716"/>
<text text-anchor="middle" x="437.4334" y="-142.8" font-family="Times,serif" font-size="14.00" fill="#000000">(&lt; 0.0.1, &gt;= 0.0.1&#45;beta.0)</text>
</g>
</g>
</svg>
