<?xml version="1.0" encoding="UTF-8" standalone="no"?>
<!DOCTYPE svg PUBLIC "-//W3C//DTD SVG 1.1//EN"
 "http://www.w3.org/Graphics/SVG/1.1/DTD/svg11.dtd">
<!-- Generated by graphviz version 2.40.1 (20161225.0304)
 -->
<!-- Title: G Pages: 1 -->
<svg width="403pt" height="130pt"
 viewBox="0.00 0.00 403.50 130.00" xmlns="http://www.w3.org/2000/svg" xmlns:xlink="http://www.w3.org/1999/xlink">
<g id="graph0" class="graph" transform="scale(1 1) rotate(0) translate(4 126)">
<title>G</title>
<polygon fill="#ffffff" stroke="transparent" points="-4,4 -4,-126 399.4988,-126 399.4988,4 -4,4"/>
<!-- Demo(0.1.0) -->
<g id="node1" class="node">
<title>Demo(0.1.0)</title>
<ellipse fill="none" stroke="#000000" cx="176.0086" cy="-104" rx="55.0922" ry="18"/>
<text text-anchor="middle" x="176.0086" y="-99.8" font-family="Times,serif" font-size="14.00" fill="#000000">Demo(0.1.0)</text>
</g>
<!-- Ground(0.0.1&#45;beta.1) -->
<g id="node2" class="node">
<title>Ground(0.0.1&#45;beta.1)</title>
<ellipse fill="none" stroke="#000000" cx="85.0086" cy="-18" rx="85.0171" ry="18"/>
<text text-anchor="middle" x="85.0086" y="-13.8" font-family="Times,serif" font-size="14.00" fill="#000000">Ground(0.0.1&#45;beta.1)</text>
</g>
<!-- Demo(0.1.0)&#45;&gt;Ground(0.0.1&#45;beta.1) -->
<g id="edge1" class="edge">
<title>Demo(0.1.0)&#45;&gt;Ground(0.0.1&#45;beta.1)</title>
<path fill="none" stroke="#000000" d="M137.0225,-91.1471C124.9846,-85.6028 112.5362,-78.0322 103.5183,-68 97.9492,-61.8045 94.0081,-53.7854 91.2387,-45.9906"/>
<polygon fill="#000000" stroke="#000000" points="94.5783,-44.9426 88.323,-36.3914 87.8805,-46.977 94.5783,-44.9426"/>
<text text-anchor="middle" x="173.7537" y="-56.8" font-family="Times,serif" font-size="14.00" fill="#000000">(&lt; 0.0.1, &gt;= 0.0.1&#45;beta.0)</text>
</g>
<!-- Login(0.0.1&#45;beta.7) -->
<g id="node3" class="node">
<title>Login(0.0.1&#45;beta.7)</title>
<ellipse fill="none" stroke="#000000" cx="267.0086" cy="-18" rx="79.2289" ry="18"/>
<text text-anchor="middle" x="267.0086" y="-13.8" font-family="Times,serif" font-size="14.00" fill="#000000">Login(0.0.1&#45;beta.7)</text>
</g>
<!-- Demo(0.1.0)&#45;&gt;Login(0.0.1&#45;beta.7) -->
<g id="edge2" class="edge">
<title>Demo(0.1.0)&#45;&gt;Login(0.0.1&#45;beta.7)</title>
<path fill="none" stroke="#000000" d="M212.7907,-90.4898C224.2272,-84.9016 236.146,-77.4713 245.0086,-68 250.8403,-61.7677 255.2908,-53.7376 258.6103,-45.9442"/>
<polygon fill="#000000" stroke="#000000" points="261.9739,-46.9439 262.2291,-36.3522 255.4245,-44.473 261.9739,-46.9439"/>
<text text-anchor="middle" x="324.7537" y="-56.8" font-family="Times,serif" font-size="14.00" fill="#000000">(&lt; 0.0.1, &gt;= 0.0.1&#45;beta.0)</text>
</g>
</g>
</svg>
